<?xml version="1.0" encoding="UTF-8" standalone="no"?>
<!-- Created with Inkscape (http://www.inkscape.org/) -->

<svg
   xmlns:dc="http://purl.org/dc/elements/1.1/"
   xmlns:cc="http://creativecommons.org/ns#"
   xmlns:rdf="http://www.w3.org/1999/02/22-rdf-syntax-ns#"
   xmlns:svg="http://www.w3.org/2000/svg"
   xmlns="http://www.w3.org/2000/svg"
   xmlns:sodipodi="http://sodipodi.sourceforge.net/DTD/sodipodi-0.dtd"
   xmlns:inkscape="http://www.inkscape.org/namespaces/inkscape"
   version="1.1"
   width="196"
   height="196"
   id="svg2"
   inkscape:version="0.47 r22583"
   sodipodi:docname="icon.svg">
  <metadata
     id="metadata13">
    <rdf:RDF>
      <cc:Work
         rdf:about="">
        <dc:format>image/svg+xml</dc:format>
        <dc:type
           rdf:resource="http://purl.org/dc/dcmitype/StillImage" />
      </cc:Work>
    </rdf:RDF>
  </metadata>
  <sodipodi:namedview
     pagecolor="#ffffff"
     bordercolor="#666666"
     borderopacity="1"
     objecttolerance="10"
     gridtolerance="10"
     guidetolerance="10"
     inkscape:pageopacity="0"
     inkscape:pageshadow="2"
     inkscape:window-width="1146"
     inkscape:window-height="813"
     id="namedview11"
     showgrid="false"
     inkscape:zoom="1.7940591"
     inkscape:cx="88.071109"
     inkscape:cy="107.20658"
     inkscape:window-x="0"
     inkscape:window-y="0"
     inkscape:window-maximized="0"
     inkscape:current-layer="svg2" />
  <defs
     id="defs4"><inkscape:perspective
   sodipodi:type="inkscape:persp3d"
   inkscape:vp_x="0 : 526.18109 : 1"
   inkscape:vp_y="0 : 1000 : 0"
   inkscape:vp_z="744.09448 : 526.18109 : 1"
   inkscape:persp3d-origin="372.04724 : 350.78739 : 1"
   id="perspective15" />

 <clipPath
   id="id0">
    <rect
   id="rect2938"
   height="3.7360499"
   width="2.99668"
   y="0.63197601"
   x="1.00166" />

   </clipPath>

   <style
   id="style2935"
   type="text/css">
   
    .str0 {stroke:navy;stroke-width:0.0415512;stroke-linecap:round;stroke-linejoin:round}
    .fil0 {fill:none}
    .fil1 {fill:white}
   
  </style>

  <inkscape:perspective
   id="perspective2975"
   inkscape:persp3d-origin="225 : 150 : 1"
   inkscape:vp_z="450 : 225 : 1"
   inkscape:vp_y="0 : 1000 : 0"
   inkscape:vp_x="0 : 225 : 1"
   sodipodi:type="inkscape:persp3d" />

  
  
  
 
   
  
   
   
   
   
   
   
   
   
   
   
   
   
   
   
   
   
   
   
   
   
   
   
  <inkscape:perspective
   id="perspective4016"
   inkscape:persp3d-origin="80 : 67.5 : 1"
   inkscape:vp_z="160 : 101.25 : 1"
   inkscape:vp_y="0 : 1000 : 0"
   inkscape:vp_x="0 : 101.25 : 1"
   sodipodi:type="inkscape:persp3d" />
</defs>
  <rect
     style="fill:#134b88;fill-opacity:1;stroke:none"
     id="rect4055"
     width="192.55219"
     height="193.7227"
     x="1.7239075"
     y="1.138649"
     ry="25.751659" />
  <g
     id="g3853"
     transform="translate(7.5812,6.41372)">
    <path
       style="fill:#f15c2f;fill-opacity:1;stroke:#f15c2f;stroke-width:1px;stroke-linecap:butt;stroke-linejoin:miter;stroke-opacity:1"
       id="path2892"
       d="m 91.91881,0.67255 -61.61931,0 L 46.46194,31.48221 0.5,31.98728 l 57.07362,150.51273 34.34518,0 0,0" />
    <path
       style="fill:#f15c2f;fill-opacity:1;stroke:#f15c2f;stroke-width:1px;stroke-linecap:butt;stroke-linejoin:miter;stroke-opacity:1"
       id="path2892-3"
       d="m 88.9188,0.67255 61.6193,0 -16.16244,30.80966 45.96194,0.50507 -57.07362,150.51273 -34.34518,0 0,0" />
  </g>
  <g
     id="g4019"
     transform="matrix(0.625,0,0,0.625,58.000717,47.374364)"
     style="fill:#134b88;fill-opacity:1;stroke:none">
    <g
       id="g3994"
       style="fill:#134b88;fill-opacity:1;stroke:none"
       transform="translate(0.422852,0.865234)">
      <path
         id="path3996"
         d="m 50.4003,50.9756 c 0,0 0,-12.0234 0,-12.0234 0,0 -12.8886,0 -12.8886,0 0,0 0,6.624 0,6.624 0,0 -9.791,0 -9.791,0 0,0 0.0712,13.9678 0.0712,13.9678 0,0 -27.7919,0 -27.7919,0 0,0 0,-17.4238 0,-17.4238 0,0 6.04785,0 6.04785,0 0,0 0,-33.6241 0,-33.6241 0,0 3.38477,0 3.38477,0 0,0 0,-4.89649 0,-4.89649 0,0 5.39938,0 5.39938,0 0,0 0,4.89649 0,4.89649 0,0 10.584,0 10.584,0 0,0 0,-4.89649 0,-4.89649 0,0 5.7597,0 5.7597,0 0,0 0,4.89649 0,4.89649 0,0 10.3682,0 10.3682,0 0,0 3.0967,-1.5127 3.0967,-1.5127 0,0 -1.6563,-3.95996 -1.6563,-3.95996 0,0 5.3994,-2.591794 5.3994,-2.591794 0,0 1.8721,3.959964 1.8721,3.959964 0,0 5.6162,-1.87207 5.6162,-1.87207 0,0 -0.0722,-2.303724 -0.0722,-2.303724 0,0 5.4726,0 5.4726,0 0,0 0,2.303724 0,2.303724 0,0 4.5361,0 4.5361,0 0,0 0,-2.303724 0,-2.303724 0,0 5.6875,0 5.6875,0 0,0 -0.0722,2.519544 -0.0722,2.519544 0,0 4.9687,1.65625 4.9687,1.65625 0,0 2.1592,-4.39161 2.1592,-4.39161 0,0 5.4727,2.37598 5.4727,2.37598 0,0 -2.0166,4.53613 -2.0166,4.53613 0,0 3.5283,1.2959 3.5283,1.2959 0,0 10.3681,0 10.3681,0 0,0 0,-4.89648 0,-4.89648 0,0 5.8318,-0.07129 5.8318,-0.07129 0,0 0,4.89551 0,4.89551 0,0 10.008,0.07226 10.008,0.07226 0,0 0,-4.96777 0,-4.96777 0,0 5.616,0 5.616,0 0,0 0,4.96777 0,4.96777 0,0 3.456,0 3.456,0 0,0 0,34.20019 0,34.20019 0,0 6.336,0 6.336,0 0,0 0,16.7032 0,16.7032 0,0 -27.864,0 -27.864,0 0,0 0,-13.8233 0,-13.8233 0,0 -9.7197,0 -9.7197,0 0,0 0,-4.5361 0,-4.5361 0,0 -11.4482,0 -11.4482,0 0,0 0,10.2236 0,10.2236 0,0 -7.128,0 -7.128,0 0,0 0,-8.8554 0,-8.8554 0,0 -4.3193,0 -4.3193,0 0,0 0,8.8554 0,8.8554 0,0 -5.6885,0 -5.6885,0 0,0 0,-8.8554 0,-8.8554 0,0 -4.0322,0 -4.0322,0 0,0 0,8.8554 0,8.8554 0,0 -6.5518,0 -6.5518,0 z"
         style="fill:#134b88;fill-opacity:1;stroke:none" />
    </g>
    <g
       id="g3998"
       style="fill:#134b88;fill-opacity:1;stroke:none"
       transform="translate(1.21484,51.8408)">
      <path
         id="path4000"
         d="m 49.6084,0 c 0,0 -3.2392,0.1446 -3.2392,0.1446 0,0 -3.457,0.288 -3.457,0.288 0,0 -3.3838,0.5752 -3.3838,0.5752 0,0 -2.2315,0.792 -2.2315,0.792 0,0 -1.7285,0.792 -1.7285,0.792 0,0 -1.584,0.9365 -1.584,0.9365 0,0 -1.7998,1.4395 -1.7998,1.4395 0,0 -1.6562,2.1602 -1.6562,2.1602 0,0 -0.9366,2.2324 -0.9366,2.2324 0,0 -0.3593,3.0234 -0.3593,3.0234 0,0 -0.0723,3.0244 -0.0723,3.0244 0,0 0,11.5918 0,11.5918 0,0 -0.7188,10.2246 -0.7188,10.2246 0,0 -0.9374,7.128 -0.9374,7.128 0,0 -1.2959,5.9036 -1.2959,5.9036 0,0 -0.9356,3.384 -0.9356,3.384 0,0 -1.584,4.608 -1.584,4.608 0,0 -2.2324,4.752 -2.2324,4.752 0,0 -2.0869,3.888 -2.0869,3.888 0,0 -2.3047,3.24 -2.3047,3.24 0,0 -2.8799,3.384 -2.8799,3.384 0,0 -3.6728,3.528 -3.6728,3.528 0,0 -4.10359,3.888 -4.10359,3.888 0,0 -2.16016,2.448 -2.16016,2.448 0,0 -1.87207,2.376 -1.87207,2.376 0,0 -1.72754,2.664 -1.72754,2.664 0,0 -0.43262,1.296 -0.43262,1.296 0,0 -0.21582,1.656 -0.21582,1.656 0,0 0.50391,0.719 0.50391,0.719 0,0 0.79199,0.505 0.79199,0.505 0,0 44.2803,0 44.2803,0 0,0 2.1602,-0.144 2.1602,-0.144 0,0 -0.0723,-5.616 -0.0723,-5.616 0,0 1.584,-1.656 1.584,-1.656 0,0 -0.8643,-3.384 -0.8643,-3.384 0,0 1.8008,-1.224 1.8008,-1.224 0,0 1.0078,-4.968 1.0078,-4.968 0,0 -0.2158,-0.576 -0.2158,-0.576 0,0 -2.5928,-3.384 -2.5928,-3.384 0,0 -0.2158,-1.152 -0.2158,-1.152 0,0 -2.9521,-15.84 -2.9521,-15.84 0,0 0.6484,-2.52 0.6484,-2.52 0,0 3.3838,-12.8879 3.3838,-12.8879 0,0 0.2158,-0.3604 0.2158,-0.3604 0,0 0.1445,-1.0801 0.1445,-1.0801 0,0 -0.0722,1.1524 -0.0722,1.1524 0,0 -0.2881,2.5918 -0.2881,2.5918 0,0 -0.2158,1.2246 -0.2158,1.2246 0,0 -0.6485,5.04 -0.6485,5.04 0,0 -0.8632,6.9836 -0.8632,6.9836 0,0 0.289,1.44 0.289,1.44 0,0 2.9502,14.4 2.9502,14.4 0,0 3.4561,3.527 3.4561,3.527 0,0 -1.0078,6.769 -1.0078,6.769 0,0 -0.1436,1.08 -0.1436,1.08 0,0 -1.2246,0.936 -1.2246,0.936 0,0 0.9365,2.448 0.9365,2.448 0,0 -1.584,1.584 -1.584,1.584 0,0 0,5.4 0,5.4 0,0 4.0323,0 4.0323,0 0,0 0.2158,1.08 0.2158,1.08 0,0 0.4316,1.44 0.4316,1.44 0,0 0.792,1.512 0.792,1.512 0,0 1.2236,1.584 1.2236,1.584 0,0 1.1524,0.936 1.1524,0.936 0,0 1.9443,0.864 1.9443,0.864 0,0 0,9.5038 0,9.5038 0,0 4.6797,0 4.6797,0 0,0 -0.0723,-9.5038 -0.0723,-9.5038 0,0 1.2246,-0.504 1.2246,-0.504 0,0 1.1514,-0.72 1.1514,-0.72 0,0 1.2246,-1.152 1.2246,-1.152 0,0 0.9356,-1.296 0.9356,-1.296 0,0 0.6484,-1.296 0.6484,-1.296 0,0 0.3594,-1.152 0.3594,-1.152 0,0 0.1445,-1.44 0.1445,-1.44 0,0 52.4877,0 52.4877,0 0,0 1.44,-0.288 1.44,-0.288 0,0 0.648,-0.576 0.648,-0.576 0,0 0.216,-0.936 0.216,-0.936 0,0 -0.216,-1.297 -0.216,-1.297 0,0 -0.792,-1.583 -0.792,-1.583 0,0 -1.152,-2.016 -1.152,-2.016 0,0 -1.224,-1.584 -1.224,-1.584 0,0 -3.24,-3.672 -3.24,-3.672 0,0 -6.912,-6.552 -6.912,-6.552 0,0 -3.672,-4.248 -3.672,-4.248 0,0 -2.376,-3.528 -2.376,-3.528 0,0 -2.16,-3.888 -2.16,-3.888 0,0 -2.664,-6.192 -2.664,-6.192 0,0 -1.8718,-6.192 -1.8718,-6.192 0,0 -1.1515,-5.3276 -1.1515,-5.3276 0,0 -1.1524,-8.3526 -1.1524,-8.3526 0,0 -0.1435,-1.7998 -0.1435,-1.7998 0,0 -0.6485,-9.2881 -0.6485,-9.2881 0,0 0,-9.5039 0,-9.5039 0,0 -0.0722,-3.5283 -0.0722,-3.5283 0,0 -0.2159,-1.7998 -0.2159,-1.7998 0,0 -0.4316,-1.7998 -0.4316,-1.7998 0,0 -0.5039,-1.3682 -0.5039,-1.3682 0,0 -1.5127,-1.7275 -1.5127,-1.7275 0,0 -2.2314,-1.8008 -2.2314,-1.8008 0,0 -1.9434,-1.1514 -1.9434,-1.1514 0,0 -1.873,-0.8642 -1.873,-0.8642 0,0 -2.0157,-0.5762 -2.0157,-0.5762 0,0 -2.3047,-0.4316 -2.3047,-0.4316 0,0 -2.3037,-0.2881 -2.3037,-0.2881 0,0 -3.9599,-0.0723 -3.9599,-0.0723 0,0 -7.128,0 -7.128,0 0,0 -4.3193,0 -4.3193,0 0,0 -5.6885,0 -5.6885,0 0,0 -4.0322,0 -4.0322,0 0,0 -6.5518,0 -6.5518,0 z"
         style="fill:#134b88;fill-opacity:1;stroke:none" />
    </g>
    <g
       id="g4002"
       style="fill:#134b88;fill-opacity:1;fill-rule:nonzero;stroke:none"
       transform="translate(0.422852,0.865234)">
      <path
         id="path4004"
         d="m 50.4003,50.9756 c 0,0 0,-12.0234 0,-12.0234 0,0 -12.8886,0 -12.8886,0 0,0 0,6.624 0,6.624 0,0 -9.791,0 -9.791,0 0,0 0.0712,13.9678 0.0712,13.9678 0,0 -27.7919,0 -27.7919,0 0,0 0,-17.4238 0,-17.4238 0,0 6.04785,0 6.04785,0 0,0 0,-33.6241 0,-33.6241 0,0 3.38477,0 3.38477,0 0,0 0,-4.89649 0,-4.89649 0,0 5.39938,0 5.39938,0 0,0 0,4.89649 0,4.89649 0,0 10.584,0 10.584,0 0,0 0,-4.89649 0,-4.89649 0,0 5.7597,0 5.7597,0 0,0 0,4.89649 0,4.89649 0,0 10.3682,0 10.3682,0 0,0 3.0967,-1.5127 3.0967,-1.5127 0,0 -1.6563,-3.95996 -1.6563,-3.95996 0,0 5.3994,-2.591794 5.3994,-2.591794 0,0 1.8721,3.959964 1.8721,3.959964 0,0 5.6162,-1.87207 5.6162,-1.87207 0,0 -0.0722,-2.303724 -0.0722,-2.303724 0,0 5.4726,0 5.4726,0 0,0 0,2.303724 0,2.303724 0,0 4.5361,0 4.5361,0 0,0 0,-2.303724 0,-2.303724 0,0 5.6875,0 5.6875,0 0,0 -0.0722,2.519544 -0.0722,2.519544 0,0 4.9687,1.65625 4.9687,1.65625 0,0 2.1592,-4.39161 2.1592,-4.39161 0,0 5.4727,2.37598 5.4727,2.37598 0,0 -2.0166,4.53613 -2.0166,4.53613 0,0 3.5283,1.2959 3.5283,1.2959 0,0 10.3681,0 10.3681,0 0,0 0,-4.89648 0,-4.89648 0,0 5.8318,-0.07129 5.8318,-0.07129 0,0 0,4.89551 0,4.89551 0,0 10.008,0.07226 10.008,0.07226 0,0 0,-4.96777 0,-4.96777 0,0 5.616,0 5.616,0 0,0 0,4.96777 0,4.96777 0,0 3.456,0 3.456,0 0,0 0,34.20019 0,34.20019 0,0 6.336,0 6.336,0 0,0 0,16.7032 0,16.7032 0,0 -27.864,0 -27.864,0 0,0 0,-13.8233 0,-13.8233 0,0 -9.7197,0 -9.7197,0 0,0 0,-4.5361 0,-4.5361 0,0 -11.4482,0 -11.4482,0 0,0 0,10.2236 0,10.2236 0,0 -7.128,0 -7.128,0 0,0 0,-8.8554 0,-8.8554 0,0 -4.3193,0 -4.3193,0 0,0 0,8.8554 0,8.8554 0,0 -5.6885,0 -5.6885,0 0,0 0,-8.8554 0,-8.8554 0,0 -4.0322,0 -4.0322,0 0,0 0,8.8554 0,8.8554 0,0 -6.5518,0 -6.5518,0 z"
         style="fill:#134b88;fill-opacity:1;stroke:none" />
    </g>
    <g
       id="g4006"
       style="fill:#134b88;fill-opacity:1;fill-rule:nonzero;stroke:none"
       transform="translate(1.21484,51.8408)">
      <path
         id="path4008"
         d="m 49.6084,0 c 0,0 -3.2392,0.1446 -3.2392,0.1446 0,0 -3.457,0.288 -3.457,0.288 0,0 -3.3838,0.5752 -3.3838,0.5752 0,0 -2.2315,0.792 -2.2315,0.792 0,0 -1.7285,0.792 -1.7285,0.792 0,0 -1.584,0.9365 -1.584,0.9365 0,0 -1.7998,1.4395 -1.7998,1.4395 0,0 -1.6562,2.1602 -1.6562,2.1602 0,0 -0.9366,2.2324 -0.9366,2.2324 0,0 -0.3593,3.0234 -0.3593,3.0234 0,0 -0.0723,3.0244 -0.0723,3.0244 0,0 0,11.5918 0,11.5918 0,0 -0.7188,10.2246 -0.7188,10.2246 0,0 -0.9374,7.128 -0.9374,7.128 0,0 -1.2959,5.9036 -1.2959,5.9036 0,0 -0.9356,3.384 -0.9356,3.384 0,0 -1.584,4.608 -1.584,4.608 0,0 -2.2324,4.752 -2.2324,4.752 0,0 -2.0869,3.888 -2.0869,3.888 0,0 -2.3047,3.24 -2.3047,3.24 0,0 -2.8799,3.384 -2.8799,3.384 0,0 -3.6728,3.528 -3.6728,3.528 0,0 -4.10359,3.888 -4.10359,3.888 0,0 -2.16016,2.448 -2.16016,2.448 0,0 -1.87207,2.376 -1.87207,2.376 0,0 -1.72754,2.664 -1.72754,2.664 0,0 -0.43262,1.296 -0.43262,1.296 0,0 -0.21582,1.656 -0.21582,1.656 0,0 0.50391,0.719 0.50391,0.719 0,0 0.79199,0.505 0.79199,0.505 0,0 44.2803,0 44.2803,0 0,0 2.1602,-0.144 2.1602,-0.144 0,0 -0.0723,-5.616 -0.0723,-5.616 0,0 1.584,-1.656 1.584,-1.656 0,0 -0.8643,-3.384 -0.8643,-3.384 0,0 1.8008,-1.224 1.8008,-1.224 0,0 1.0078,-4.968 1.0078,-4.968 0,0 -0.2158,-0.576 -0.2158,-0.576 0,0 -2.5928,-3.384 -2.5928,-3.384 0,0 -0.2158,-1.152 -0.2158,-1.152 0,0 -2.9521,-15.84 -2.9521,-15.84 0,0 0.6484,-2.52 0.6484,-2.52 0,0 3.3838,-12.8879 3.3838,-12.8879 0,0 0.2158,-0.3604 0.2158,-0.3604 0,0 0.1445,-1.0801 0.1445,-1.0801 0,0 -0.0722,1.1524 -0.0722,1.1524 0,0 -0.2881,2.5918 -0.2881,2.5918 0,0 -0.2158,1.2246 -0.2158,1.2246 0,0 -0.6485,5.04 -0.6485,5.04 0,0 -0.8632,6.9836 -0.8632,6.9836 0,0 0.289,1.44 0.289,1.44 0,0 2.9502,14.4 2.9502,14.4 0,0 3.4561,3.527 3.4561,3.527 0,0 -1.0078,6.769 -1.0078,6.769 0,0 -0.1436,1.08 -0.1436,1.08 0,0 -1.2246,0.936 -1.2246,0.936 0,0 0.9365,2.448 0.9365,2.448 0,0 -1.584,1.584 -1.584,1.584 0,0 0,5.4 0,5.4 0,0 4.0323,0 4.0323,0 0,0 0.2158,1.08 0.2158,1.08 0,0 0.4316,1.44 0.4316,1.44 0,0 0.792,1.512 0.792,1.512 0,0 1.2236,1.584 1.2236,1.584 0,0 1.1524,0.936 1.1524,0.936 0,0 1.9443,0.864 1.9443,0.864 0,0 0,9.5038 0,9.5038 0,0 4.6797,0 4.6797,0 0,0 -0.0723,-9.5038 -0.0723,-9.5038 0,0 1.2246,-0.504 1.2246,-0.504 0,0 1.1514,-0.72 1.1514,-0.72 0,0 1.2246,-1.152 1.2246,-1.152 0,0 0.9356,-1.296 0.9356,-1.296 0,0 0.6484,-1.296 0.6484,-1.296 0,0 0.3594,-1.152 0.3594,-1.152 0,0 0.1445,-1.44 0.1445,-1.44 0,0 52.4877,0 52.4877,0 0,0 1.44,-0.288 1.44,-0.288 0,0 0.648,-0.576 0.648,-0.576 0,0 0.216,-0.936 0.216,-0.936 0,0 -0.216,-1.297 -0.216,-1.297 0,0 -0.792,-1.583 -0.792,-1.583 0,0 -1.152,-2.016 -1.152,-2.016 0,0 -1.224,-1.584 -1.224,-1.584 0,0 -3.24,-3.672 -3.24,-3.672 0,0 -6.912,-6.552 -6.912,-6.552 0,0 -3.672,-4.248 -3.672,-4.248 0,0 -2.376,-3.528 -2.376,-3.528 0,0 -2.16,-3.888 -2.16,-3.888 0,0 -2.664,-6.192 -2.664,-6.192 0,0 -1.8718,-6.192 -1.8718,-6.192 0,0 -1.1515,-5.3276 -1.1515,-5.3276 0,0 -1.1524,-8.3526 -1.1524,-8.3526 0,0 -0.1435,-1.7998 -0.1435,-1.7998 0,0 -0.6485,-9.2881 -0.6485,-9.2881 0,0 0,-9.5039 0,-9.5039 0,0 -0.0722,-3.5283 -0.0722,-3.5283 0,0 -0.2159,-1.7998 -0.2159,-1.7998 0,0 -0.4316,-1.7998 -0.4316,-1.7998 0,0 -0.5039,-1.3682 -0.5039,-1.3682 0,0 -1.5127,-1.7275 -1.5127,-1.7275 0,0 -2.2314,-1.8008 -2.2314,-1.8008 0,0 -1.9434,-1.1514 -1.9434,-1.1514 0,0 -1.873,-0.8642 -1.873,-0.8642 0,0 -2.0157,-0.5762 -2.0157,-0.5762 0,0 -2.3047,-0.4316 -2.3047,-0.4316 0,0 -2.3037,-0.2881 -2.3037,-0.2881 0,0 -3.9599,-0.0723 -3.9599,-0.0723 0,0 -7.128,0 -7.128,0 0,0 -4.3193,0 -4.3193,0 0,0 -5.6885,0 -5.6885,0 0,0 -4.0322,0 -4.0322,0 0,0 -6.5518,0 -6.5518,0 z"
         style="fill:#134b88;fill-opacity:1;stroke:none" />
    </g>
  </g>
</svg>
